# xmcd
#
# Track frame offsets: 
#        150
#        17972
#        35150
#        53235
#        69817
#        88620
#        113560
#        131865
#        152300
#        170395
#        191860
#        208537
#
# Disc length: 2968 seconds
#
# Revision: 4
# Processed by: cddbd v1.5.2PL0 Copyright (c) Steve Scherf et al.
# Submitted via: ExactAudioCopy v1.0b4
#
DISCID=9f0b960c
DTITLE=Nelson Gonçalves - Ainda É Cedo 
DYEAR=1997
DGENRE=Other
TTITLE0=Como Uma Onda (Zen Surfismo) (Part. Esp. Lulu Santos)
TTITLE1=Faz Parte Do Meu Show
TTITLE2=De Mais Ninguém
TTITLE3=Meu Erro
TTITLE4=Ainda É Cedo
TTITLE5=Você É Linda
TTITLE6=Bem Que Se Quis
TTITLE7=Caso Sério
TTITLE8=Nada Por Mim (Part. Esp. Frejat)
TTITLE9=Simples Carinho
TTITLE10=Estácio, Holly Estácio
TTITLE11=Me Chama
EXTD=
EXTT0=
EXTT1=
EXTT2=
EXTT3=
EXTT4=
EXTT5=
EXTT6=
EXTT7=
EXTT8=
EXTT9=
EXTT10=
EXTT11=
PLAYORDER=
